<?xml version="1.0" encoding="utf-8"?>
<!-- Generator: Adobe Illustrator 23.0.2, SVG Export Plug-In . SVG Version: 6.00 Build 0)  -->
<svg version="1.1" id="Layer_1" xmlns="http://www.w3.org/2000/svg" xmlns:xlink="http://www.w3.org/1999/xlink" x="0px" y="0px"
	 viewBox="0 0 256.35 254.76" enable-background="new 0 0 256.35 254.76" xml:space="preserve">
<rect x="7.83" y="8.51" fill="none" width="238.32" height="238.32"/>
<circle fill="#FFFFFF" stroke="#000000" stroke-width="1.1963" stroke-miterlimit="10" cx="126.98" cy="127.67" r="119.16"/>
<g>
	<path d="M59.03,68.93V90.2h-4.25V68.93h-7.63v-3.89h19.51v3.89H59.03z"/>
	<path d="M99.99,86.73c-2.54,2.48-5.69,3.73-9.43,3.73c-3.74,0-6.89-1.24-9.43-3.73c-2.54-2.48-3.82-5.58-3.82-9.29
		s1.27-6.8,3.82-9.29c2.54-2.48,5.69-3.73,9.43-3.73c3.74,0,6.89,1.24,9.43,3.73c2.54,2.48,3.82,5.58,3.82,9.29
		S102.53,84.25,99.99,86.73z M96.88,70.98c-1.72-1.78-3.82-2.66-6.32-2.66c-2.5,0-4.6,0.89-6.32,2.66
		c-1.72,1.78-2.57,3.93-2.57,6.46c0,2.53,0.86,4.69,2.57,6.46c1.72,1.78,3.82,2.66,6.32,2.66c2.5,0,4.6-0.89,6.32-2.66
		c1.72-1.78,2.57-3.93,2.57-6.46C99.45,74.91,98.59,72.76,96.88,70.98z"/>
	<path d="M117.52,65.04h4.25v12.28l11.52-12.28h5.4l-10.12,11.02l10.26,14.15h-5.04l-8.35-11.02l-3.67,3.96v7.06h-4.25V65.04z"/>
	<path d="M161.11,90.2h-4.32v-9.94l-9.36-15.23h4.64l6.88,11.45l6.88-11.45h4.64l-9.36,15.23V90.2z"/>
	<path d="M202.25,86.73c-2.54,2.48-5.69,3.73-9.43,3.73c-3.74,0-6.89-1.24-9.43-3.73c-2.54-2.48-3.82-5.58-3.82-9.29
		s1.27-6.8,3.82-9.29c2.54-2.48,5.69-3.73,9.43-3.73c3.74,0,6.89,1.24,9.43,3.73c2.54,2.48,3.82,5.58,3.82,9.29
		S204.79,84.25,202.25,86.73z M199.13,70.98c-1.72-1.78-3.82-2.66-6.32-2.66c-2.5,0-4.6,0.89-6.32,2.66
		c-1.72,1.78-2.57,3.93-2.57,6.46c0,2.53,0.86,4.69,2.57,6.46c1.72,1.78,3.82,2.66,6.32,2.66c2.5,0,4.6-0.89,6.32-2.66
		c1.72-1.78,2.57-3.93,2.57-6.46C201.71,74.91,200.85,72.76,199.13,70.98z"/>
	<path d="M49.52,140.2v-25.16h4.25v21.13h11.48v4.03H49.52z"/>
	<path d="M110.3,136.73c-2.54,2.48-5.69,3.73-9.43,3.73c-3.74,0-6.89-1.24-9.43-3.73c-2.54-2.48-3.82-5.58-3.82-9.29
		c0-3.71,1.27-6.8,3.82-9.29c2.54-2.48,5.69-3.73,9.43-3.73c3.74,0,6.89,1.24,9.43,3.73c2.54,2.48,3.82,5.58,3.82,9.29
		C114.11,131.15,112.84,134.25,110.3,136.73z M107.18,120.98c-1.72-1.78-3.82-2.66-6.32-2.66c-2.5,0-4.6,0.89-6.32,2.66
		c-1.72,1.78-2.57,3.93-2.57,6.46c0,2.53,0.86,4.69,2.57,6.46c1.72,1.78,3.82,2.66,6.32,2.66c2.5,0,4.6-0.89,6.32-2.66
		c1.72-1.78,2.57-3.93,2.57-6.46C109.76,124.91,108.9,122.76,107.18,120.98z"/>
	<path d="M151.02,136.35c1.46,0,2.72-0.25,3.78-0.74c1.06-0.49,2.16-1.28,3.31-2.36l2.74,2.81c-2.66,2.95-5.9,4.43-9.7,4.43
		c-3.8,0-6.96-1.22-9.47-3.67c-2.51-2.45-3.76-5.54-3.76-9.29c0-3.74,1.28-6.86,3.83-9.36c2.56-2.5,5.78-3.74,9.68-3.74
		c3.9,0,7.16,1.44,9.77,4.32l-2.7,2.95c-1.2-1.15-2.33-1.96-3.4-2.41c-1.07-0.46-2.32-0.68-3.76-0.68c-2.54,0-4.68,0.82-6.41,2.47
		s-2.59,3.74-2.59,6.3c0,2.56,0.86,4.69,2.57,6.41C146.63,135.49,148.66,136.35,151.02,136.35z"/>
	<path d="M186.08,115.04h4.25v12.28l11.52-12.28h5.4l-10.12,11.02l10.26,14.15h-5.04L194,129.19l-3.67,3.96v7.06h-4.25V115.04z"/>
	<path d="M68.57,168.33c2.42,2.2,3.64,5.25,3.64,9.16c0,3.91-1.18,7.01-3.53,9.29c-2.35,2.28-5.95,3.42-10.8,3.42h-8.35v-25.16h8.64
		C62.68,165.04,66.14,166.14,68.57,168.33z M67.92,177.6c0-5.76-3.3-8.64-9.9-8.64h-4.25v17.24h4.72c3.05,0,5.38-0.73,7-2.18
		S67.92,180.44,67.92,177.6z"/>
	<path d="M110.72,186.73c-2.54,2.48-5.69,3.73-9.43,3.73c-3.74,0-6.89-1.24-9.43-3.73c-2.54-2.48-3.82-5.58-3.82-9.29
		s1.27-6.8,3.82-9.29c2.54-2.48,5.69-3.73,9.43-3.73c3.74,0,6.89,1.24,9.43,3.73c2.54,2.48,3.82,5.58,3.82,9.29
		S113.26,184.25,110.72,186.73z M107.6,170.98c-1.72-1.78-3.82-2.66-6.32-2.66c-2.5,0-4.6,0.89-6.32,2.66
		c-1.72,1.78-2.57,3.93-2.57,6.46c0,2.53,0.86,4.69,2.57,6.46c1.72,1.78,3.82,2.66,6.32,2.66c2.5,0,4.6-0.89,6.32-2.66
		c1.72-1.78,2.57-3.93,2.57-6.46C110.18,174.91,109.32,172.76,107.6,170.98z"/>
	<path d="M139.47,183.15l5.62-18.11h3.82l5.62,18.11l6.34-18.11h4.57l-8.78,25.16h-4.21l-5.29-17.24h-0.29l-5.29,17.24h-4.21
		l-8.78-25.16h4.57L139.47,183.15z"/>
	<path d="M200.2,165.04h4.25v25.16h-4.61l-14.26-18.36v18.36h-4.25v-25.16h4.25l14.62,18.79V165.04z"/>
</g>
</svg>
